<?xml version="1.0" encoding="UTF-8"?>
<svg id="Layer_2" xmlns="http://www.w3.org/2000/svg" version="1.1" viewBox="0 0 806.8 131.7">
  <!-- Generator: Adobe Illustrator 30.0.0, SVG Export Plug-In . SVG Version: 2.1.1 Build 123)  -->
  <defs>
    <style>
      .st0 {
        fill: #fff;
      }

      .st1 {
        opacity: .3;
      }

      .st2 {
        fill: #b49566;
      }
    </style>
  </defs>
  <g>
    <g>
      <path class="st2" d="M753.7,53.2l-61,.4c5-7.7,19.2-18,24.6-17.8,3.8.2,5.2.6,8.2,2.8,2.3,1.6,6.8-1.9,9.2-5,2.7-3.5,3.1-6.7.9-8.5-2.7-2.2-6.2-3.4-10.6-3.6-10.4-.4-24.5,10.4-34,21.3-.1.2-.2.3-.3.5-5.7,6.6-9.4,14-11.2,20.1-.5,1.7.8,3.4,2.5,3.4h18.3s46.6,0,46.6,0c14.5,0,16.6,6.2,15.1,11.7-.2.6-.7,1-1.4,1-3.9,0-17.8,0-29.8,0-8.6,0-38.6,0-38.6,0h-.1c-18.1-.2-42-2.5-42-13.2s13.5-18.7,32.2-24.5c.1,0,.2,0,.4-.1.4-.1.5-.5.6-.5.8-1.1,1.6-2.1,2.1-2.9l.3-.3c.9-1,1.8-2,2.8-3.1l-.2-.8-.6-.5c-24.1,5.9-35.7,15.7-40.5,21.1,0,.1-.2.2-.3.4-5.1,5.9-6.6,12.2-6.6,17.1,0,20.9,31.8,24.1,50.6,24.1h38.1c3.4,0,13.1,0,19.3,0,3.8,0,7.5-1.3,10.4-3.8,7.8-6.4,15.7-15.5,15.7-25.3s-10.2-13.9-20.6-13.9h0Z"/>
      <path class="st2" d="M745,33.3c-.5,0-1,.3-1.2.8-.5,1.2-1.3,2.5-2.2,3.8q-.1.2-.3.4c-.1.2,0,.2,0,.4.2,0,.1.3.3.3.2,0,.1,0,.3,0,35.1,3,57.4,15.9,57.4,33,0,28-37.7,40.8-71.9,42.6-1.5,0-3.1.2-4.6.2,0,0-2.4,0-2.5,0-.3,0-1.3,0-1.8,0-39.3,0-60.1-5-76.6-14.2-.5-.3-1.2.2-1,.8,9.1,22.6,50.5,30.2,76.3,30.2,66.5,0,89.5-33.4,89.5-58.4-.9-23.9-29.3-36.8-61.8-40h0Z"/>
    </g>
    <g>
      <polygon class="st0" points="440.7 84.9 430.6 84.9 417.1 99.4 417.1 84.9 409.4 84.9 409.4 119.8 417.1 119.8 417.1 103.2 431.3 119.8 442 119.8 425.2 101.1 440.7 84.9"/>
      <rect class="st0" x="444.6" y="84.9" width="7.7" height="34.9"/>
      <path class="st0" d="M485.4,88.8c-1.9-1.4-4.1-2.4-6.6-3-2.5-.6-5.2-.9-8-.9h-11.5v34.9h12.6c2.6,0,5.1-.4,7.5-1.1,2.4-.8,4.5-1.9,6.3-3.3s3.2-3.3,4.3-5.4c1.1-2.2,1.6-4.6,1.6-7.5s-.5-5.9-1.6-8.1-2.6-4.1-4.5-5.4M482.5,107c-.6,1.4-1.5,2.5-2.6,3.3-1.1.8-2.4,1.4-4,1.8s-3.2.5-5,.5h-4v-20.7h4.5c1.6,0,3.1.2,4.6.6s2.7,1,3.8,1.8c1.1.8,2,1.9,2.6,3.1.6,1.3,1,2.8,1,4.5s-.3,3.6-1,5"/>
      <path class="st0" d="M508.2,84.9l-15.1,34.9h8.5l2.9-7.4h13.6l3,7.4h8.7l-15.2-34.9h-6.4ZM506.9,105.9l4.2-10.8,4.3,10.8h-8.5,0Z"/>
      <polygon class="st0" points="558.7 109.1 558.6 109.1 543.7 84.9 533.3 84.9 533.3 119.8 541 119.8 541 94.9 541 94.9 556.3 119.8 566.3 119.8 566.3 84.9 558.7 84.9 558.7 109.1"/>
      <path class="st0" d="M591.3,84.9h-6.4l-15.1,34.9h8.5l2.9-7.4h13.6l3,7.4h8.7l-15.2-34.9h0ZM583.7,105.9l4.2-10.8,4.3,10.8h-8.5,0Z"/>
      <path class="st0" d="M606.3,68.7c0-8.6-7-15.7-15.7-15.7h-29.3c.8-3.5,4-6.2,7.8-6.2h18.7v-7.7h-18.7c-8.6,0-15.7,7-15.7,15.7v5.8h37.2c3.7,0,6.8,2.5,7.7,6h-60v-1.3c0-8.6-7-15.7-15.7-15.7h-12.1v7.7h12.1c4.4,0,8,3.6,8,8v1.3h-23.3v7.7h98.9v-5.7h0Z"/>
      <rect class="st0" x="491.4" y="39.3" width="7.7" height="35.1"/>
      <path class="st0" d="M482.7,74.4v-23.1h-7.7v15.4h-31.6v-17.2h-18.4c-8.6,0-15.7,7-15.7,15.7v5.4h0v3.8h73.3,0ZM425,57.1h10.7v9.6h-18.7v-1.6c0-4.4,3.6-8,8-8"/>
      <rect class="st0" x="455.3" y="44.9" width="7.9" height="7.9" transform="translate(99.9 339.1) rotate(-45)"/>
      <polygon class="st0" points="429.8 39.1 435.4 44.7 441 39.1 435.4 33.5 429.8 39.1 424.2 33.5 418.6 39.1 424.2 44.7 429.8 39.1"/>
    </g>
  </g>
  <g>
    <g>
      <g>
        <rect class="st0" x="304.6" y="108.2" width="4.1" height="4.1"/>
        <rect class="st0" x="304.6" y="116.3" width="4.1" height="4.1"/>
        <path class="st0" d="M271.9,99.9v16.4h-4.1v-8.2h-20.5v12.3h53.3v-12.3h-20.5v8.2h-4.1v-12.3h32.8v-4.1h-36.9,0ZM263.6,116.3h-12.3v-4.1h12.3v4.1ZM284.1,112.2h12.3v4.1h-12.3v-4.1Z"/>
        <rect class="st0" x="312.8" y="59" width="4.1" height="4.1"/>
        <rect class="st0" x="321" y="59" width="4.1" height="4.1"/>
        <path class="st0" d="M312.8,67.2v20.5h8.2v4.1h-12.3v-32.8h-4.1v36.9h16.4v4.1h-8.2v20.5h12.3v-53.3h-12.3ZM321,116.3h-4.1v-12.3h4.1v12.3ZM321,83.6h-4.1v-12.3h4.1v12.3Z"/>
        <rect class="st0" x="263.6" y="50.8" width="4.1" height="4.1"/>
        <rect class="st0" x="263.6" y="42.6" width="4.1" height="4.1"/>
        <path class="st0" d="M271.9,42.6v12.3h20.5v-8.2h4.1v12.3h-32.8v4.1h36.9v-16.4h4.1v8.2h20.5v-12.3h-53.3,0ZM288.2,50.8h-12.3v-4.1h12.3v4.1ZM321,50.8h-12.3v-4.1h12.3v4.1Z"/>
        <rect class="st0" x="255.4" y="99.9" width="4.1" height="4.1"/>
        <rect class="st0" x="247.2" y="99.9" width="4.1" height="4.1"/>
        <path class="st0" d="M251.4,67.2v-4.1h8.2v-20.5h-12.3v53.3h12.3v-20.5h-8.2v-4.1h12.3v32.8h4.1v-36.9h-16.4ZM251.4,46.7h4.1v12.3h-4.1v-12.3ZM255.4,91.8h-4.1v-12.3h4.1v12.3Z"/>
        <path class="st0" d="M291.4,76.7c.4.8.6,1.8.7,2.7-1-1.3-2.2-2.4-3.5-3.3.1.1.2.3.3.4,1.1,1.7.9,4,.3,5.8-.4-1.7-1-3.4-1.9-4.9-.2-.3-.4-.7-.6-1l.3,7.8c0,.3-.3.8-.9.8s-.9-.5-.9-.8l.3-7.7c-.2.3-.4.6-.6,1-.9,1.4-1.5,3.1-1.9,4.9-.6-1.8-.8-4.1.3-5.8.1-.2.2-.3.3-.4-1.3.8-2.5,2-3.5,3.3.2-1.8.9-3.8,2.5-4.8.5-.3,1.1-.6,1.7-.7h0c-.3,0-.7,0-1,0-1.5.2-2.9.7-4.3,1.3,1-1.5,2.6-2.7,4.1-2.8.2,0,.5,0,.7,0-.9-.4-1.9-.8-2.9-1.1,1.4-.4,2.8-.3,4.1.3.4-1.6,1-2.5,1-2.5,0,0,.7.9,1,2.5,1.3-.6,2.7-.6,4.1-.3-1,.3-2,.7-2.9,1.1.2,0,.5,0,.7,0,.8,0,1.5.4,2.2.9.7.5,1.4,1.2,1.9,1.9-1.4-.6-2.8-1.1-4.3-1.3-.3,0-.7,0-1-.1h0c.6.2,1.2.4,1.7.7.8.5,1.4,1.3,1.8,2.1"/>
        <path class="st0" d="M300.5,82c-1.6-.2-3.2.2-4.7,1l-8.3,5.1,3.3,2,.5-.8s0,0,0,0c-.4-.2-.5-.7-.3-1.1.2-.4.7-.5,1.1-.3.4.2.5.7.3,1.1l-.9,1.4.4.3,1,.6c.3.2.7.2,1.1,0,0,.2,0,.4,0,.5,0,0,0,.1,0,.2-.3.6-1.1.7-1.6.4l-1.4-.9-.5.8s0,0,0,0c.4.2.5.7.3,1.1-.2.4-.7.5-1.1.3-.4-.2-.5-.7-.3-1.1l.9-1.4-3.9-2.4-3.9,2.4.9,1.4c.2.4.1.9-.3,1.1-.4.2-.9.1-1.1-.3-.2-.4-.1-.9.3-1.1,0,0,0,0,0,0l-.5-.8-1.4.9c-.6.3-1.3.2-1.6-.4,0,0,0-.1,0-.2,0-.2,0-.3,0-.5.3.1.7.1,1.1,0l1-.6.5-.3-.9-1.4c-.2-.4-.1-.9.3-1.1.4-.2.9-.1,1.1.3s.1.9-.3,1.1c0,0,0,0,0,0l.5.8,3.3-2-8.3-5.1c-1.5-.9-3.1-1.2-4.7-1,1.6-1.1,3.7-1.2,5.4-.1l8.9,5.4,8.9-5.4c1.7-1.1,3.9-.9,5.4.1"/>
      </g>
      <g>
        <g>
          <path class="st0" d="M50.7,102.9c0,0-.2,0-.2-.2l-2.3-4.6h-2.5c0,0,0,0,0,0v4.5c0,.1,0,.2-.2.2h-1.2c-.1,0-.2,0-.2-.2v-11c0-.1,0-.2.2-.2h4.1c.5,0,1,0,1.5.2.4.2.8.4,1.1.7.3.3.6.6.7,1s.3.8.3,1.3c0,.8-.2,1.4-.6,1.9-.4.5-1,.9-1.6,1.1l2.4,4.8c0,0,0,0,0,.1s0,0-.1,0h-1.4ZM48.3,96.7c.7,0,1.2-.2,1.5-.5.4-.3.5-.8.5-1.4s-.2-1.1-.5-1.4c-.4-.3-.9-.5-1.5-.5h-2.7c0,0,0,0,0,0v3.6c0,0,0,0,0,0h2.7Z"/>
          <path class="st0" d="M58.4,103.1c-1,0-1.8-.2-2.4-.7s-1.1-1.1-1.4-2c0-.2,0-.3-.1-.5s0-.4,0-.6,0-.5,0-.9,0-.7,0-1.2,0-.9,0-1.2c0-.3,0-.6,0-.9s0-.4,0-.6,0-.3.1-.5c.3-.9.8-1.5,1.4-2s1.5-.7,2.4-.7,1.8.2,2.5.7c.7.4,1.1,1.1,1.4,2,0,.2,0,.3.1.5s0,.4,0,.6,0,.5,0,.9,0,.7,0,1.2,0,.9,0,1.2c0,.3,0,.6,0,.9s0,.4,0,.6,0,.3-.1.5c-.3.9-.8,1.5-1.4,2s-1.5.7-2.5.7ZM58.4,101.7c.6,0,1.2-.1,1.5-.4.4-.3.7-.7.9-1.2,0,0,0-.2,0-.4s0-.3,0-.6c0-.2,0-.5,0-.8,0-.3,0-.7,0-1.1s0-.8,0-1.1c0-.3,0-.6,0-.8,0-.2,0-.4,0-.6,0-.2,0-.3,0-.4-.2-.6-.5-1-.9-1.2-.4-.3-.9-.4-1.5-.4s-1.2.1-1.5.4c-.4.3-.7.7-.9,1.2,0,0,0,.2,0,.4,0,.2,0,.3,0,.6,0,.2,0,.5,0,.8s0,.7,0,1.1,0,.8,0,1.1,0,.6,0,.8c0,.2,0,.4,0,.6s0,.3,0,.4c.2.6.5,1,.9,1.2.4.3.9.4,1.5.4Z"/>
          <path class="st0" d="M67.7,102.9c-.1,0-.2,0-.2-.2v-4.5l-3.4-6.5c0-.1,0-.2.1-.2h1.2c0,0,.2,0,.2.2l2.5,4.9h0l2.5-4.9c0-.1.1-.2.2-.2h1.2c.1,0,.2,0,.1.2l-3.4,6.5v4.5c0,.1,0,.2-.2.2h-1.1,0Z"/>
          <path class="st0" d="M76.2,91.7c0-.1,0-.2.2-.2h1.1c.1,0,.2,0,.2.2l3.9,11c0,.1,0,.2-.1.2h-1.2c-.1,0-.2,0-.2-.2l-.9-2.5h-4.6l-.9,2.5c0,.1-.1.2-.2.2h-1.2c-.1,0-.2,0-.1-.2l3.9-11h0ZM78.8,98.9l-1.8-5.2h0l-1.8,5.2h3.6Z"/>
          <path class="st0" d="M83.7,91.7c0-.1,0-.2.2-.2h1.2c.1,0,.2,0,.2.2v9.7c0,0,0,0,0,0h5.4c.1,0,.2,0,.2.2v1.1c0,.1,0,.2-.2.2h-6.8c-.1,0-.2,0-.2-.2v-11Z"/>
          <path class="st0" d="M97.1,100.4c0-.2,0-.3-.1-.5,0-.2,0-.4,0-.6,0-.2,0-.5,0-.9s0-.7,0-1.2,0-.9,0-1.2c0-.3,0-.6,0-.9,0-.2,0-.4,0-.6,0-.2,0-.3.1-.5.3-.9.8-1.6,1.4-2,.7-.4,1.4-.7,2.4-.7s1.6.2,2.2.6c.6.4,1.1,1,1.4,1.7,0,0,0,.2,0,.2l-1,.5c-.1,0-.2,0-.2,0-.2-.4-.5-.8-.9-1.1s-.8-.4-1.4-.4-1.1.1-1.5.4c-.4.3-.7.7-.8,1.2,0,.1,0,.2,0,.4s0,.3,0,.5,0,.5,0,.8,0,.7,0,1.1,0,.8,0,1.1c0,.3,0,.6,0,.8,0,.2,0,.4,0,.5,0,.1,0,.3,0,.4.2.5.5.9.8,1.2s.9.4,1.5.4,1.1-.1,1.4-.4c.4-.3.7-.7.9-1.1,0-.1.1-.1.2,0l1,.5c0,0,0,.1,0,.2-.3.7-.8,1.3-1.4,1.7-.6.4-1.4.6-2.2.6s-1.7-.2-2.4-.7c-.7-.4-1.1-1.1-1.4-2h0Z"/>
          <path class="st0" d="M110.6,103.1c-1,0-1.8-.2-2.4-.7s-1.1-1.1-1.4-2c0-.2,0-.3-.1-.5s0-.4,0-.6,0-.5,0-.9,0-.7,0-1.2,0-.9,0-1.2c0-.3,0-.6,0-.9,0-.2,0-.4,0-.6,0-.2,0-.3.1-.5.3-.9.8-1.5,1.4-2s1.5-.7,2.4-.7,1.8.2,2.4.7c.7.4,1.1,1.1,1.4,2,0,.2,0,.3.1.5s0,.4,0,.6,0,.5,0,.9,0,.7,0,1.2,0,.9,0,1.2c0,.3,0,.6,0,.9,0,.2,0,.4,0,.6,0,.2,0,.3-.1.5-.3.9-.8,1.5-1.4,2s-1.5.7-2.4.7ZM110.6,101.7c.6,0,1.2-.1,1.6-.4s.7-.7.9-1.2c0,0,0-.2,0-.4s0-.3,0-.6c0-.2,0-.5,0-.8s0-.7,0-1.1,0-.8,0-1.1,0-.6,0-.8c0-.2,0-.4,0-.6,0-.2,0-.3,0-.4-.2-.6-.5-1-.9-1.2s-.9-.4-1.6-.4-1.2.1-1.5.4c-.4.3-.7.7-.9,1.2,0,0,0,.2,0,.4,0,.2,0,.3,0,.6,0,.2,0,.5,0,.8s0,.7,0,1.1,0,.8,0,1.1,0,.6,0,.8c0,.2,0,.4,0,.6s0,.3,0,.4c.2.6.5,1,.9,1.2.4.3.9.4,1.5.4Z"/>
          <path class="st0" d="M117.5,91.7c0-.1,0-.2.2-.2h1.1c.1,0,.2,0,.3.2l3.4,7.7h0l3.3-7.7c0-.1.1-.2.3-.2h1.1c.1,0,.2,0,.2.2v11c0,.1,0,.2-.2.2h-1.1c-.1,0-.2,0-.2-.2v-7.9h0l-2.8,6.2c0,.1-.2.2-.3.2h-.7c-.2,0-.3,0-.3-.2l-2.8-6.2h0v7.9c0,.1,0,.2-.2.2h-1.1c-.1,0-.2,0-.2-.2,0,0,0-11,0-11Z"/>
          <path class="st0" d="M130.3,91.7c0-.1,0-.2.2-.2h1.1c.1,0,.2,0,.3.2l3.4,7.7h0l3.3-7.7c0-.1.1-.2.3-.2h1.1c.1,0,.2,0,.2.2v11c0,.1,0,.2-.2.2h-1.1c-.1,0-.2,0-.2-.2v-7.9h0l-2.8,6.2c0,.1-.2.2-.3.2h-.7c-.2,0-.3,0-.3-.2l-2.8-6.2h0v7.9c0,.1,0,.2-.2.2h-1.1c-.1,0-.2,0-.2-.2v-11h0Z"/>
          <path class="st0" d="M143.2,91.7c0-.1,0-.2.2-.2h1.2c.1,0,.2,0,.2.2v11c0,.1,0,.2-.2.2h-1.2c-.1,0-.2,0-.2-.2v-11Z"/>
          <path class="st0" d="M151.2,103.1c-.4,0-.8,0-1.2-.1s-.8-.2-1.1-.3c-.4-.1-.7-.3-.9-.4s-.5-.3-.8-.5c0,0,0-.2,0-.2l.7-.9c0,0,.1,0,.2,0,.4.3.8.6,1.4.8.6.2,1.1.4,1.8.4s1.4-.2,1.9-.5c.4-.4.7-.8.7-1.4s0-.5-.1-.7-.2-.4-.4-.5c-.2-.2-.4-.3-.7-.4s-.7-.2-1.1-.2h-.6c-2.2-.4-3.3-1.4-3.3-3.2s0-1,.3-1.4.4-.8.7-1.1.7-.5,1.2-.7c.5-.2,1-.2,1.5-.2s1.3,0,1.9.3c.6.2,1.1.4,1.5.8,0,0,.1.1,0,.2l-.6.9c0,0-.1,0-.2,0-.5-.3-.9-.5-1.4-.6-.4-.1-.9-.2-1.4-.2-.7,0-1.2.2-1.6.5-.4.3-.6.8-.6,1.3s.2.9.5,1.2c.4.3,1,.5,1.9.6h.6c1.1.2,1.9.6,2.5,1.1s.8,1.2.8,2.2,0,1-.3,1.4-.4.8-.8,1.1-.8.5-1.3.7-1.1.3-1.8.3h0Z"/>
          <path class="st0" d="M161.3,103.1c-.4,0-.8,0-1.2-.1s-.8-.2-1.1-.3c-.4-.1-.7-.3-.9-.4s-.5-.3-.8-.5c0,0,0-.2,0-.2l.7-.9c0,0,.1,0,.2,0,.4.3.8.6,1.4.8.6.2,1.1.4,1.8.4s1.4-.2,1.9-.5c.4-.4.7-.8.7-1.4s0-.5-.1-.7-.2-.4-.4-.5c-.2-.2-.4-.3-.7-.4s-.7-.2-1.1-.2h-.6c-2.2-.4-3.3-1.4-3.3-3.2s0-1,.3-1.4.4-.8.7-1.1.7-.5,1.2-.7c.5-.2,1-.2,1.5-.2s1.3,0,1.9.3c.6.2,1.1.4,1.5.8,0,0,.1.1,0,.2l-.6.9c0,0-.1,0-.2,0-.5-.3-.9-.5-1.4-.6-.4-.1-.9-.2-1.4-.2-.7,0-1.2.2-1.6.5-.4.3-.6.8-.6,1.3s.2.9.5,1.2c.4.3,1,.5,1.9.6h.6c1.1.2,1.9.6,2.5,1.1s.8,1.2.8,2.2,0,1-.3,1.4-.4.8-.8,1.1c-.4.3-.8.5-1.3.7s-1.1.3-1.8.3h0Z"/>
          <path class="st0" d="M168,91.7c0-.1,0-.2.2-.2h1.2c.1,0,.2,0,.2.2v11c0,.1,0,.2-.2.2h-1.2c-.1,0-.2,0-.2-.2v-11Z"/>
          <path class="st0" d="M176.3,103.1c-1,0-1.8-.2-2.4-.7-.7-.4-1.1-1.1-1.4-2,0-.2-.1-.3-.1-.5s0-.4,0-.6c0-.2,0-.5,0-.9,0-.3,0-.7,0-1.2s0-.9,0-1.2c0-.3,0-.6,0-.9s0-.4,0-.6,0-.3.1-.5c.3-.9.8-1.5,1.4-2,.7-.4,1.5-.7,2.4-.7s1.8.2,2.4.7c.7.4,1.1,1.1,1.4,2,0,.2.1.3.1.5s0,.4,0,.6c0,.2,0,.5,0,.9s0,.7,0,1.2,0,.9,0,1.2c0,.3,0,.6,0,.9s0,.4,0,.6,0,.3-.1.5c-.3.9-.8,1.5-1.4,2-.7.4-1.5.7-2.4.7ZM176.3,101.7c.6,0,1.1-.1,1.6-.4.4-.3.7-.7.9-1.2,0,0,0-.2,0-.4s0-.3,0-.6c0-.2,0-.5,0-.8s0-.7,0-1.1,0-.8,0-1.1,0-.6,0-.8c0-.2,0-.4,0-.6,0-.2,0-.3,0-.4-.2-.6-.5-1-.9-1.2s-.9-.4-1.6-.4-1.1.1-1.5.4c-.4.3-.7.7-.9,1.2,0,0,0,.2,0,.4,0,.2,0,.3,0,.6,0,.2,0,.5,0,.8s0,.7,0,1.1,0,.8,0,1.1,0,.6,0,.8c0,.2,0,.4,0,.6s0,.3,0,.4c.2.6.5,1,.9,1.2.4.3.9.4,1.5.4Z"/>
          <path class="st0" d="M183.1,91.7c0-.1,0-.2.2-.2h1.1c.1,0,.2,0,.3.2l5.1,8.5h0v-8.5c0-.1,0-.2.2-.2h1.1c.1,0,.2,0,.2.2v11c0,.1,0,.2-.2.2h-1.1c-.1,0-.2,0-.3-.2l-5.2-8.5h0v8.5c0,.1,0,.2-.2.2h-1.1c-.1,0-.2,0-.2-.2v-11h0Z"/>
          <path class="st0" d="M198.6,91.7c0-.1,0-.2.2-.2h6.9c.1,0,.2,0,.2.2v1.1c0,.1,0,.2-.2.2h-5.4c0,0-.1,0-.1,0v3.5c0,0,0,0,.1,0h4.6c.1,0,.2,0,.2.2v1.1c0,.1,0,.2-.2.2h-4.6c0,0-.1,0-.1,0v4.7c0,.1,0,.2-.2.2h-1.2c-.1,0-.2,0-.2-.2,0,0,0-11,0-11Z"/>
          <path class="st0" d="M211.9,103.1c-1,0-1.8-.2-2.4-.7-.7-.4-1.1-1.1-1.4-2,0-.2-.1-.3-.1-.5s0-.4,0-.6c0-.2,0-.5,0-.9,0-.3,0-.7,0-1.2s0-.9,0-1.2c0-.3,0-.6,0-.9s0-.4,0-.6,0-.3.1-.5c.3-.9.8-1.5,1.4-2,.7-.4,1.5-.7,2.4-.7s1.8.2,2.4.7c.7.4,1.1,1.1,1.4,2,0,.2.1.3.1.5s0,.4,0,.6c0,.2,0,.5,0,.9,0,.3,0,.7,0,1.2s0,.9,0,1.2c0,.3,0,.6,0,.9s0,.4,0,.6,0,.3-.1.5c-.3.9-.8,1.5-1.4,2-.7.4-1.5.7-2.4.7ZM211.9,101.7c.6,0,1.1-.1,1.6-.4.4-.3.7-.7.9-1.2,0,0,0-.2,0-.4s0-.3,0-.6c0-.2,0-.5,0-.8,0-.3,0-.7,0-1.1s0-.8,0-1.1c0-.3,0-.6,0-.8,0-.2,0-.4,0-.6,0-.2,0-.3,0-.4-.2-.6-.5-1-.9-1.2s-.9-.4-1.6-.4-1.1.1-1.5.4c-.4.3-.7.7-.9,1.2,0,0,0,.2,0,.4,0,.2,0,.3,0,.6,0,.2,0,.5,0,.8s0,.7,0,1.1,0,.8,0,1.1,0,.6,0,.8c0,.2,0,.4,0,.6s0,.3,0,.4c.2.6.5,1,.9,1.2.4.3.9.4,1.5.4Z"/>
          <path class="st0" d="M225.3,102.9c-.1,0-.2,0-.2-.2l-2.3-4.6h-2.5c0,0-.1,0-.1,0v4.5c0,.1,0,.2-.2.2h-1.2c-.1,0-.2,0-.2-.2v-11c0-.1,0-.2.2-.2h4.1c.5,0,1,0,1.5.2.4.2.8.4,1.1.7.3.3.6.6.7,1s.3.8.3,1.3c0,.8-.2,1.4-.6,1.9-.4.5-.9.9-1.6,1.1l2.4,4.8c0,0,0,0,0,.1,0,0,0,0-.1,0h-1.4,0ZM222.9,96.7c.7,0,1.2-.2,1.6-.5.4-.3.6-.8.6-1.4s-.2-1.1-.6-1.4c-.4-.3-.9-.5-1.6-.5h-2.6c0,0-.1,0-.1,0v3.6c0,0,0,0,.1,0h2.6Z"/>
          <path class="st0" d="M0,109.2c0-.1,0-.2.2-.2h1.1c.1,0,.2,0,.3.2l3.4,7.7h0l3.3-7.7c0-.1.1-.2.3-.2h1.1c.1,0,.2,0,.2.2v11c0,.1,0,.2-.2.2h-1.1c-.1,0-.2,0-.2-.2v-7.9h0l-2.8,6.2c0,.1-.2.2-.3.2h-.7c-.2,0-.3,0-.3-.2l-2.8-6.2h0v7.9c0,.1,0,.2-.2.2H.2c-.1,0-.2,0-.2-.2v-11Z"/>
          <path class="st0" d="M15.8,109.2c0-.1.1-.2.2-.2h1.1c.1,0,.2,0,.2.2l3.9,11c0,.1,0,.2-.1.2h-1.2c-.1,0-.2,0-.2-.2l-.9-2.5h-4.6l-.9,2.5c0,.1-.1.2-.2.2h-1.2c-.1,0-.1,0-.1-.2l3.9-11h0ZM18.3,116.4l-1.8-5.2h0l-1.8,5.2h3.6Z"/>
          <path class="st0" d="M23.2,109.2c0-.1,0-.2.2-.2h1.2c.1,0,.2,0,.2.2v5.9l4.8-5.9c0,0,.2-.2.3-.2h1.4c0,0,0,0,.1,0s0,0,0,.1l-3.5,4.3,3.9,6.7c0,.1,0,.2-.1.2h-1.3c-.1,0-.2,0-.2-.2l-3.2-5.6-2,2.4v3.1c0,.1,0,.2-.2.2h-1.2c-.1,0-.2,0-.2-.2v-11h0Z"/>
          <path class="st0" d="M33.8,109.2c0-.1,0-.2.2-.2h1.2c.1,0,.2,0,.2.2v5.9l4.8-5.9c0,0,.2-.2.3-.2h1.4c0,0,0,0,.1,0s0,0,0,.1l-3.5,4.3,3.9,6.7c0,.1,0,.2,0,.2h-1.3c0,0-.2,0-.2-.2l-3.2-5.6-2,2.4v3.1c0,.1,0,.2-.2.2h-1.2c-.1,0-.2,0-.2-.2v-11h0Z"/>
          <path class="st0" d="M47.3,109.2c0-.1,0-.2.2-.2h1.1c.1,0,.2,0,.2.2l3.9,11c0,.1,0,.2-.1.2h-1.2c-.1,0-.2,0-.2-.2l-.9-2.5h-4.6l-.9,2.5c0,.1-.1.2-.2.2h-1.2c-.1,0-.2,0-.1-.2l3.9-11h0ZM49.8,116.4l-1.8-5.2h0l-1.8,5.2h3.6Z"/>
          <path class="st0" d="M54.7,109.2c0-.1,0-.2.2-.2h1.2c.1,0,.2,0,.2.2v4.7c0,0,0,0,0,0h4.9c0,0,0,0,0,0v-4.7c0-.1,0-.2.2-.2h1.2c.1,0,.2,0,.2.2v11c0,.1,0,.2-.2.2h-1.2c-.1,0-.2,0-.2-.2v-4.8c0,0,0,0,0,0h-4.9c0,0,0,0,0,0v4.8c0,.1,0,.2-.2.2h-1.2c-.1,0-.2,0-.2-.2,0,0,0-11,0-11Z"/>
          <path class="st0" d="M70.1,117.9c0-.2,0-.3-.1-.5,0-.2,0-.4,0-.6,0-.2,0-.5,0-.9s0-.7,0-1.2,0-.9,0-1.2c0-.3,0-.6,0-.9,0-.2,0-.4,0-.6,0-.2,0-.3.1-.5.3-.9.8-1.6,1.4-2,.7-.4,1.4-.7,2.4-.7s1.6.2,2.2.6c.6.4,1.1,1,1.4,1.7,0,0,0,.2,0,.2l-1,.5c-.1,0-.2,0-.2,0-.2-.4-.5-.8-.9-1.1s-.8-.4-1.4-.4-1.1.1-1.5.4c-.4.3-.7.7-.8,1.2,0,.1,0,.2,0,.4s0,.3,0,.5,0,.5,0,.8,0,.7,0,1.1,0,.8,0,1.1c0,.3,0,.6,0,.8,0,.2,0,.4,0,.5,0,.1,0,.3,0,.4.2.5.5.9.8,1.2s.9.4,1.5.4,1.1-.1,1.4-.4c.4-.3.7-.7.9-1.1,0-.1.1-.1.2,0l1,.5c0,0,0,.1,0,.2-.3.7-.8,1.3-1.4,1.7-.6.4-1.4.6-2.2.6s-1.7-.2-2.4-.7c-.7-.4-1.1-1.1-1.4-2h0Z"/>
          <path class="st0" d="M79.8,109.2c0-.1,0-.2.2-.2h1.2c.1,0,.2,0,.2.2v11c0,.1,0,.2-.2.2h-1.2c-.1,0-.2,0-.2-.2v-11Z"/>
          <path class="st0" d="M86.9,120.4c-.1,0-.2,0-.2-.2v-9.7c0,0,0,0,0,0h-3.1c-.1,0-.2,0-.2-.2v-1.1c0-.1,0-.2.2-.2h7.9c.1,0,.2,0,.2.2v1.1c0,.1,0,.2-.2.2h-3.1c0,0,0,0,0,0v9.7c0,.1,0,.2-.2.2h-1.2,0Z"/>
          <path class="st0" d="M96,120.4c-.1,0-.2,0-.2-.2v-4.5l-3.4-6.5c0-.1,0-.2.1-.2h1.2c0,0,.2,0,.2.2l2.5,4.9h0l2.5-4.9c0-.1.1-.2.2-.2h1.2c.1,0,.2,0,.1.2l-3.4,6.5v4.5c0,.1,0,.2-.2.2h-1.1,0Z"/>
          <path class="st0" d="M109.6,109.2c0-.1,0-.2.2-.2h1.1c.1,0,.2,0,.2.2l3.9,11c0,.1,0,.2-.1.2h-1.2c-.1,0-.2,0-.2-.2l-.9-2.5h-4.6l-.9,2.5c0,.1-.1.2-.2.2h-1.2c-.1,0-.2,0-.1-.2l3.9-11h0ZM112.1,116.4l-1.8-5.2h0l-1.8,5.2h3.6Z"/>
          <path class="st0" d="M117,109.2c0-.1,0-.2.2-.2h1.1c.1,0,.2,0,.3.2l5.2,8.5h0v-8.5c0-.1,0-.2.2-.2h1.1c.1,0,.2,0,.2.2v11c0,.1,0,.2-.2.2h-1.1c-.1,0-.2,0-.3-.2l-5.2-8.5h0v8.5c0,.1,0,.2-.2.2h-1.1c-.1,0-.2,0-.2-.2v-11h0Z"/>
          <path class="st0" d="M128.2,109.2c0-.1,0-.2.2-.2h3.8c1.9,0,3.2.8,3.7,2.4,0,.2,0,.3.1.5s0,.4.1.6,0,.5,0,.9,0,.8,0,1.3,0,.9,0,1.3c0,.3,0,.6,0,.9s0,.4-.1.6,0,.3-.1.5c-.5,1.6-1.8,2.4-3.7,2.4h-3.8c-.1,0-.2,0-.2-.2v-11h0ZM129.7,118.9c0,0,0,0,.1,0h2.1c.7,0,1.2-.1,1.7-.4s.7-.6.9-1.2c0,0,0-.2.1-.3s0-.3,0-.5c0-.2,0-.5,0-.8s0-.7,0-1.1,0-.8,0-1.1c0-.3,0-.6,0-.8,0-.2,0-.4,0-.5s0-.2-.1-.3c-.2-.6-.5-.9-.9-1.2-.4-.2-1-.4-1.7-.4h-2.1c0,0-.1,0-.1,0v8.4h0Z"/>
          <path class="st0" d="M143.1,109.2c0-.1,0-.2.2-.2h1.2c.1,0,.2,0,.2.2v4.7c0,0,0,0,.1,0h4.9c0,0,.1,0,.1,0v-4.7c0-.1,0-.2.2-.2h1.2c.1,0,.2,0,.2.2v11c0,.1,0,.2-.2.2h-1.2c-.1,0-.2,0-.2-.2v-4.8c0,0,0,0-.1,0h-4.9c0,0-.1,0-.1,0v4.8c0,.1,0,.2-.2.2h-1.2c-.1,0-.2,0-.2-.2,0,0,0-11,0-11Z"/>
          <path class="st0" d="M158,120.6c-1,0-1.8-.2-2.4-.7-.7-.4-1.1-1.1-1.4-2,0-.2-.1-.3-.1-.5s0-.4,0-.6c0-.2,0-.5,0-.9,0-.3,0-.7,0-1.2s0-.9,0-1.2c0-.3,0-.6,0-.9s0-.4,0-.6,0-.3.1-.5c.3-.9.8-1.5,1.4-2,.7-.4,1.5-.7,2.4-.7s1.8.2,2.4.7c.7.4,1.1,1.1,1.4,2,0,.2.1.3.1.5s0,.4,0,.6c0,.2,0,.5,0,.9,0,.3,0,.7,0,1.2s0,.9,0,1.2c0,.3,0,.6,0,.9s0,.4,0,.6,0,.3-.1.5c-.3.9-.8,1.5-1.4,2-.7.4-1.5.7-2.4.7ZM158,119.2c.6,0,1.1-.1,1.6-.4.4-.3.7-.7.9-1.2,0,0,0-.2,0-.4s0-.3,0-.6c0-.2,0-.5,0-.8s0-.7,0-1.1,0-.8,0-1.1,0-.6,0-.8c0-.2,0-.4,0-.6,0-.2,0-.3,0-.4-.2-.6-.5-1-.9-1.2s-.9-.4-1.6-.4-1.1.1-1.5.4c-.4.3-.7.7-.9,1.2,0,0,0,.2,0,.4,0,.2,0,.3,0,.6,0,.2,0,.5,0,.8s0,.7,0,1.1,0,.8,0,1.1,0,.6,0,.8c0,.2,0,.4,0,.6s0,.3,0,.4c.2.6.5,1,.9,1.2.4.3.9.4,1.5.4Z"/>
          <path class="st0" d="M164.9,109.2c0-.1,0-.2.2-.2h1.2c.1,0,.2,0,.2.2v9.7c0,0,0,0,.1,0h5.4c.1,0,.2,0,.2.2v1.1c0,.1,0,.2-.2.2h-6.9c-.1,0-.2,0-.2-.2v-11Z"/>
          <path class="st0" d="M175,120.4c-.1,0-.2,0-.2-.2v-4.5l-3.4-6.5c0-.1,0-.2.1-.2h1.2c.1,0,.2,0,.2.2l2.5,4.9h0l2.5-4.9c0-.1.1-.2.2-.2h1.1c.1,0,.2,0,.1.2l-3.4,6.5v4.5c0,.1,0,.2-.2.2h-1.1,0Z"/>
          <path class="st0" d="M189,120.6c-.4,0-.8,0-1.2-.1s-.8-.2-1.1-.3c-.4-.1-.7-.3-.9-.4s-.5-.3-.8-.5c0,0,0-.2,0-.2l.7-.9c0,0,.1,0,.2,0,.4.3.8.6,1.4.8.6.2,1.1.4,1.8.4s1.4-.2,1.9-.5c.4-.4.7-.8.7-1.4s0-.5-.1-.7-.2-.4-.4-.5c-.2-.2-.4-.3-.7-.4s-.7-.2-1.1-.2h-.6c-2.2-.4-3.3-1.4-3.3-3.2s0-1,.3-1.4.4-.8.7-1.1.7-.5,1.2-.7c.5-.2,1-.2,1.5-.2s1.3,0,1.9.3c.6.2,1.1.4,1.5.8,0,0,.1.1,0,.2l-.6.9c0,0-.1,0-.2,0-.5-.3-.9-.5-1.4-.6-.4-.1-.9-.2-1.4-.2-.7,0-1.2.2-1.6.5-.4.3-.6.8-.6,1.3s.2.9.5,1.2c.4.3,1,.5,1.9.6h.6c1.1.2,1.9.6,2.5,1.1s.8,1.2.8,2.2,0,1-.3,1.4-.4.8-.8,1.1-.8.5-1.3.7-1.1.3-1.8.3h0Z"/>
          <path class="st0" d="M195.7,109.2c0-.1,0-.2.2-.2h1.2c.1,0,.2,0,.2.2v11c0,.1,0,.2-.2.2h-1.2c-.1,0-.2,0-.2-.2v-11Z"/>
          <path class="st0" d="M202.8,120.4c-.1,0-.2,0-.2-.2v-9.7c0,0,0,0-.1,0h-3.1c-.1,0-.2,0-.2-.2v-1.1c0-.1,0-.2.2-.2h7.9c.1,0,.2,0,.2.2v1.1c0,.1,0,.2-.2.2h-3.1c0,0-.1,0-.1,0v9.7c0,.1,0,.2-.2.2h-1.2,0Z"/>
          <path class="st0" d="M209.5,109.2c0-.1,0-.2.2-.2h6.9c.1,0,.2,0,.2.2v1.1c0,.1,0,.2-.2.2h-5.4c0,0-.1,0-.1,0v3.3c0,0,0,0,.1,0h4.6c.1,0,.2,0,.2.2v1.1c0,.1,0,.2-.2.2h-4.6c0,0-.1,0-.1,0v3.5c0,0,0,0,.1,0h5.4c.1,0,.2,0,.2.2v1.1c0,.1,0,.2-.2.2h-6.9c-.1,0-.2,0-.2-.2,0,0,0-11,0-11Z"/>
          <path class="st0" d="M222.6,120.6c-.4,0-.8,0-1.2-.1s-.8-.2-1.1-.3c-.4-.1-.7-.3-.9-.4s-.5-.3-.8-.5c0,0,0-.2,0-.2l.7-.9c0,0,.1,0,.2,0,.4.3.8.6,1.4.8.6.2,1.1.4,1.8.4s1.4-.2,1.9-.5c.4-.4.7-.8.7-1.4s0-.5-.1-.7-.2-.4-.4-.5c-.2-.2-.4-.3-.7-.4s-.7-.2-1.1-.2h-.6c-2.2-.4-3.3-1.4-3.3-3.2s0-1,.3-1.4.4-.8.7-1.1.7-.5,1.2-.7c.5-.2,1-.2,1.5-.2s1.3,0,1.9.3c.6.2,1.1.4,1.5.8,0,0,.1.1,0,.2l-.6.9c0,0-.1,0-.2,0-.5-.3-.9-.5-1.4-.6-.4-.1-.9-.2-1.4-.2-.7,0-1.2.2-1.6.5-.4.3-.6.8-.6,1.3s.2.9.5,1.2c.4.3,1,.5,1.9.6h.6c1.1.2,1.9.6,2.5,1.1s.8,1.2.8,2.2,0,1-.3,1.4-.4.8-.8,1.1-.8.5-1.3.7-1.1.3-1.8.3h0Z"/>
        </g>
        <g>
          <path class="st0" d="M6.4,43.8c-.7,0-1.3.6-1.3,1.3s.6,1.3,1.3,1.3,1.3-.6,1.3-1.3-.6-1.3-1.3-1.3M3.4,43.8c-.7,0-1.2.6-1.2,1.3s.5,1.3,1.2,1.3,1.3-.6,1.3-1.3-.6-1.3-1.3-1.3"/>
          <path class="st0" d="M31.1,47.4c-3.4,0-5,2.2-5,4.7s.4,2.2,1.1,2.8c0,0-.5-.1-1.1-.1h-3.1c-.2-3.7-1.8-5.6-4.3-6.7l4.7-2.8v-2.5l-7.6,4.8v1.9c3.1.7,4.6,2.5,4.7,5.5h-11.2v-6.7s-1.8-.7-4.1-.7c-3.5,0-5.1,2.3-5.1,4.8s1.4,4.5,5.2,4.5h30.3v-4.9c0-2.7-1.3-4.4-4.4-4.4M6.7,54.7h-1.2c-2,0-2.9-1-2.9-2.7s.8-2.6,2.3-2.6,1.8.3,1.8.3v5h0ZM33,54.7h-1.5c-2,0-2.9-.9-2.9-2.7s.9-2.6,2.3-2.6,2.1.8,2.1,2.7v2.6h0Z"/>
          <path class="st0" d="M48.3,43.8c-.7,0-1.3.6-1.3,1.3s.5,1.3,1.3,1.3,1.3-.6,1.3-1.3-.6-1.3-1.3-1.3M45.2,43.8c-.7,0-1.3.6-1.3,1.3s.5,1.3,1.3,1.3,1.3-.6,1.3-1.3-.6-1.3-1.3-1.3"/>
          <path class="st0" d="M60.9,43.8c-.7,0-1.3.6-1.3,1.3s.6,1.3,1.3,1.3,1.3-.6,1.3-1.3-.6-1.3-1.3-1.3"/>
          <path class="st0" d="M68.9,58.1c-.7,0-1.3.5-1.3,1.2s.5,1.3,1.3,1.3,1.3-.6,1.3-1.3-.6-1.2-1.3-1.2M65.8,58.1c-.7,0-1.3.5-1.3,1.2s.6,1.3,1.3,1.3,1.3-.6,1.3-1.3-.6-1.2-1.3-1.2"/>
          <path class="st0" d="M66.1,47.6v7.1h-4v-7.1h-2.5v7.1h-8.5v-6.7s-1.8-.7-4.1-.7c-3.5,0-5.1,2.3-5.1,4.8s1.4,4.5,5.2,4.5h21.6v-9.1h-2.6,0ZM48.6,54.7h-1.2c-2,0-2.9-1-2.9-2.7s.8-2.6,2.3-2.6,1.8.3,1.8.3v5h0Z"/>
          <path class="st0" d="M96.2,43.1v11.6h-4.6v-2.9c0-2.7-1.3-4.4-4.4-4.4s-5,2.2-5,4.7-.8,2.6-1.9,2.6h-.9c-.2-4.3-2.4-6.5-6.4-7.5l-.6,2.1c3.1.8,4.4,2.5,4.6,5.4h-5.7v2h9.4c1.6,0,2.4-.6,2.8-1.5.7.9,1.6,1.5,4.3,1.5h11.1v-13.6h-2.6ZM89.1,54.7h-1.5c-2,0-2.9-.9-2.9-2.7s.8-2.6,2.3-2.6,2.1.8,2.1,2.7v2.6h0Z"/>
          <path class="st0" d="M111.9,43.8c-.7,0-1.2.6-1.2,1.3s.5,1.3,1.2,1.3,1.3-.6,1.3-1.3-.6-1.3-1.3-1.3M108.8,43.8c-.7,0-1.2.6-1.2,1.3s.5,1.3,1.2,1.3,1.3-.6,1.3-1.3-.6-1.3-1.3-1.3"/>
          <path class="st0" d="M122.4,58.1c-.7,0-1.3.5-1.3,1.2s.5,1.3,1.3,1.3,1.2-.6,1.2-1.3-.6-1.2-1.2-1.2M125.5,58.1c-.7,0-1.3.5-1.3,1.2s.5,1.3,1.3,1.3,1.2-.6,1.2-1.3-.6-1.2-1.2-1.2"/>
          <path class="st0" d="M158.2,43.1v11.6h-4.1v-2.9c0-2.7-1.4-4.4-4.4-4.4s-5,2.2-5,4.7-.8,2.6-1.9,2.6h-1.8v-11.6h-2.6v11.6h-3.1c-.2-3.7-1.8-5.6-4.3-6.7l4.7-2.8v-2.5l-7.6,4.8v1.9c3.1.7,4.6,2.5,4.7,5.5h-7.6v-7.1h-2.6v7.1h-8.1v-6.7s-1.8-.7-4.1-.7c-3.5,0-5.1,2.3-5.1,4.8s1.4,4.5,5.2,4.5h32.5c1.6,0,2.4-.6,2.8-1.5.7.9,1.5,1.5,4.3,1.5h10.6v-13.6h-2.6ZM112.1,54.7h-1.2c-2,0-2.9-1-2.9-2.7s.8-2.6,2.3-2.6,1.8.3,1.8.3v5h0ZM151.7,54.7h-1.5c-2,0-2.9-.9-2.9-2.7s.9-2.6,2.3-2.6,2.1.8,2.1,2.7v2.6h0Z"/>
          <rect class="st0" x="163.9" y="43.1" width="2.6" height="13.6"/>
          <path class="st0" d="M179.1,43.8c-.7,0-1.3.6-1.3,1.3s.5,1.3,1.3,1.3,1.3-.6,1.3-1.3-.6-1.3-1.3-1.3M176,43.8c-.7,0-1.3.6-1.3,1.3s.5,1.3,1.3,1.3,1.3-.6,1.3-1.3-.6-1.3-1.3-1.3"/>
          <path class="st0" d="M192.2,45.3c-1.1,0-1.4-.3-1.4-.7s.3-.7.9-.7.9,0,1.1.1l.2-1.3c-.1,0-.6-.1-1.1-.1-2,0-2.8,1-2.8,2s.2.7.5.8c-.3,0-.7-.1-1.2-.1v1.4h5v-1.4h-1.2Z"/>
          <path class="st0" d="M199.8,58.1c-.7,0-1.3.5-1.3,1.2s.5,1.3,1.3,1.3,1.3-.6,1.3-1.3-.6-1.2-1.3-1.2M196.7,58.1c-.7,0-1.3.5-1.3,1.2s.5,1.3,1.3,1.3,1.3-.6,1.3-1.3-.6-1.2-1.3-1.2"/>
          <path class="st0" d="M218.6,43.1v11.6h-3.6c0-5.7-2.8-8-7.6-8s-3.3.3-4.7.8l.2,2c1.2-.4,2.8-.8,4.1-.8,3.8,0,5.4,1.8,5.4,5.8v.2h-1.9v-.5c0-2.2-1-4.1-3.6-4.1s-3.7,1.4-3.7,3.2.4,1.3.5,1.4c0,0-.4,0-.9,0h-3.4v-7.1h-2.6v7.1h-4.5v-7.1h-2.6v7.1h-8.1v-6.7s-1.8-.7-4.1-.7c-3.5,0-5.1,2.3-5.1,4.8s1.4,4.5,5.2,4.5h43.3v-13.6h-2.6,0ZM179.4,54.7h-1.2c-2,0-2.9-1-2.9-2.7s.9-2.6,2.3-2.6,1.8.3,1.8.3v5h0ZM208.5,54.8h-1.3c-1,0-1.8-.4-1.8-1.5s.6-1.3,1.4-1.3,1.7.8,1.7,2.3v.5h0Z"/>
          <rect class="st0" x="224.2" y="43.1" width="2.6" height="13.6"/>
          <path class="st0" d="M6.5,65c-.7,0-1.3.6-1.3,1.2s.6,1.3,1.3,1.3,1.3-.6,1.3-1.3-.6-1.2-1.3-1.2M3.4,65c-.7,0-1.2.6-1.2,1.2s.5,1.3,1.2,1.3,1.3-.6,1.3-1.3-.6-1.2-1.3-1.2"/>
          <path class="st0" d="M26,68.1l-2.5.3c.3,1.5.6,3.2.6,5.2s0,1.5-.1,2.3h-.5c-1.8,0-2.3-.3-2.3-1.8v-4.8h-2.5v4.4c0,1.9-.6,2.5-1.6,2.5s-1.3-.8-1.3-2.5v-3.6h-2.6v3.5c0,1.9-.5,2.4-1.7,2.4h-2.3v-6.7s-1.8-.7-4.1-.7C1.6,68.6,0,70.9,0,73.4s1.4,4.5,5.2,4.5h6.3c1.4,0,2.2-.5,2.6-1.3.3.9,1.3,1.5,2.6,1.5s2.5-.7,2.9-1.5c.6,1.1,1.6,1.3,3.6,1.3h3.2c.2-1.4.3-3.1.3-4.5s-.2-3.8-.6-5.3M6.7,75.9h-1.2c-2,0-2.9-.9-2.9-2.7s.8-2.6,2.3-2.6,1.8.3,1.8.3v5h0Z"/>
          <path class="st0" d="M44,65c-.7,0-1.3.6-1.3,1.2s.5,1.3,1.3,1.3,1.3-.6,1.3-1.3-.6-1.2-1.3-1.2M47.1,65c-.7,0-1.3.6-1.3,1.2s.5,1.3,1.3,1.3,1.3-.6,1.3-1.3-.6-1.2-1.3-1.2"/>
          <path class="st0" d="M66.5,64.3v11.6h-3.9v-2.9c0-2.7-1.3-4.4-4.4-4.4s-5,2.2-5,4.7-.8,2.6-1.9,2.6h-.7c-.7,0-1.5,0-1.5,0,.7-.6,1.1-1.8,1.1-2.9,0-3.1-1.8-4.5-4.5-4.5s-4.9,2-4.9,4.8.3,2,.9,2.6c0,0-.6,0-1.2,0h-3c-.2-4.3-2.5-6.5-6.4-7.5l-.6,2.1c3.1.8,4.4,2.6,4.6,5.4h-5.7v2h22.2c1.6,0,2.4-.6,2.7-1.5.7.9,1.5,1.5,4.3,1.5h10.4v-13.6h-2.6ZM45.5,75.9c-1.4,0-2.1-.9-2.1-2.7s1.1-2.6,2.2-2.6,2.1.9,2.1,2.6-.9,2.7-2.2,2.7M60.1,75.9h-1.5c-2,0-2.9-.9-2.9-2.7s.8-2.6,2.3-2.6,2.1.8,2.1,2.7v2.6h0Z"/>
          <rect class="st0" x="72.2" y="64.3" width="2.6" height="13.6"/>
          <path class="st0" d="M97.6,75.9v2h-12c0,2.6-.8,4.9-4.8,4.9s-1.2,0-1.6-.2l.2-2c.5.1.9.2,1.6.2,1.3,0,2.1-.6,2.1-2.7v-9.3h2.6v7.1h5c-.8-.5-1.5-1.6-1.5-2.9,0-2.4,1.6-4.4,5.1-4.4s2.4.4,2.4.4l-.4,2s-.9-.4-2-.4-2.4,1-2.4,2.4,1.3,2.9,4.4,2.9h1.5Z"/>
          <path class="st0" d="M112.5,65.1c-.7,0-1.3.6-1.3,1.3s.6,1.3,1.3,1.3,1.3-.6,1.3-1.3-.6-1.3-1.3-1.3M114.1,62.6c-.7,0-1.3.6-1.3,1.3s.6,1.3,1.3,1.3,1.3-.6,1.3-1.3-.6-1.3-1.3-1.3M115.7,65.1c-.7,0-1.3.6-1.3,1.3s.6,1.3,1.3,1.3,1.2-.6,1.2-1.3-.6-1.3-1.2-1.3"/>
          <path class="st0" d="M137.4,64.3v11.6h-3.5v-2.9c0-2.7-1.4-4.4-4.4-4.4s-5,2.2-5,4.7-.8,2.6-1.9,2.6h-1.8c0-.9,0-1.7,0-2.5,0-1.9-.2-3.8-.6-5.3l-2.5.3c.3,1.5.6,3.2.6,5.2s0,1.5-.1,2.3h-.5c-1.8,0-2.3-.3-2.3-1.8v-4.8h-2.4v4.4c0,1.9-.6,2.5-1.6,2.5s-1.3-.8-1.3-2.5v-3.6h-2.6v3.5c0,1.9-.5,2.4-1.7,2.4h-3.5v-11.6h-2.6v13.6h6c1.4,0,2.2-.5,2.6-1.3.3.9,1.3,1.5,2.6,1.5s2.5-.7,2.9-1.5c.6,1.1,1.6,1.3,3.6,1.3h5.4c1.6,0,2.4-.6,2.7-1.5.7.9,1.6,1.5,4.3,1.5h10.1v-13.6h-2.6ZM131.4,75.9h-1.5c-2,0-2.9-.9-2.9-2.7s.8-2.6,2.3-2.6,2.1.8,2.1,2.7v2.6h0Z"/>
          <rect class="st0" x="143.1" y="64.3" width="2.6" height="13.6"/>
          <path class="st0" d="M148.4,82.5l.2-2.1s1.5.3,3,.3,3.3-.8,3.3-2.6v-.3h-1.5c-3.8,0-5.2-1.7-5.2-4.5s1.6-4.8,5.1-4.8,4.1.7,4.1.7v8.7c0,2.7-1.7,4.8-6.1,4.8s-2.9-.2-2.9-.2M154.9,70.9s-.7-.3-1.8-.3-2.3,1.1-2.3,2.6.9,2.7,2.9,2.7h1.2v-5Z"/>
          <path class="st0" d="M170,65c-.7,0-1.3.6-1.3,1.2s.6,1.3,1.3,1.3,1.3-.6,1.3-1.3-.6-1.2-1.3-1.2M166.9,65c-.7,0-1.2.6-1.2,1.2s.5,1.3,1.2,1.3,1.3-.6,1.3-1.3-.6-1.2-1.3-1.2"/>
          <path class="st0" d="M181.5,68.6c-3.4,0-5,2.2-5,4.7s.4,2.2,1.1,2.8c0,0-.5-.1-1.1-.1h-3.7v-6.7s-1.8-.7-4.1-.7c-3.5,0-5.1,2.3-5.1,4.8s1.4,4.5,5.2,4.5h17.1v-4.9c0-2.7-1.4-4.4-4.4-4.4M170.2,75.9h-1.2c-2,0-2.9-.9-2.9-2.7s.9-2.6,2.3-2.6,1.8.3,1.8.3v5h0ZM183.3,75.9h-1.5c-2,0-2.9-.9-2.9-2.7s.9-2.6,2.3-2.6,2.1.8,2.1,2.7v2.6h0Z"/>
          <path class="st0" d="M218.6,64.3v11.6h-3.5v-2.9c0-2.7-1.4-4.4-4.4-4.4s-5,2.2-5,4.7-.8,2.6-1.9,2.6h-1c-.2-3.7-1.8-5.7-4.3-6.8l4.7-2.8v-2.5l-7.7,4.8v1.9c3.1.7,4.6,2.4,4.7,5.4h-8v-7.1h-2.6v9.3c0,2.1-.8,2.7-2.1,2.7s-1.1,0-1.6-.2l-.2,2c.5.1,1,.2,1.6.2,3.9,0,4.8-2.4,4.8-4.8h0c0,0,11.8,0,11.8,0,1.6,0,2.4-.6,2.8-1.5.7.9,1.6,1.5,4.3,1.5h10.1v-13.6h-2.6ZM212.5,75.9h-1.5c-2,0-2.9-.9-2.9-2.7s.9-2.6,2.3-2.6,2.1.8,2.1,2.7v2.6h0Z"/>
          <rect class="st0" x="224.2" y="64.3" width="2.6" height="13.6"/>
        </g>
      </g>
    </g>
    <g>
      <path class="st0" d="M101,12h2.6c-.2,1.2-.3,2.1-.3,2.9,0,1.4.3,2.4.9,3s1.8.9,3.5.9h5.8c.2,0,.2,0,.2.2v2.3c0,.2,0,.3-.2.3h-6.4c-2.1,0-3.7-.5-4.8-1.6-1.1-1-1.7-2.5-1.7-4.4s.2-2.2.4-3.6h0ZM105.8,8.5l2.2-2.2,1.9,1.8,1.8-1.8,2.2,2.2-2.2,2.2-1.9-1.8-1.8,1.8-2.2-2.2ZM115.3,9.6h2.7c.5,3.5.7,5.9.7,7.2s-.5,2.6-1.4,3.4c-.9.9-2.2,1.3-3.9,1.3s-.2,0-.2-.3v-2.3c0-.2,0-.2.2-.2.9,0,1.6-.2,2-.5s.6-.9.6-1.6c0-1.2-.2-3.5-.7-7.1h0Z"/>
      <path class="st0" d="M122,3.7h2.7v13c0,.7.2,1.2.6,1.6s1,.5,2,.5.2,0,.2.2v2.3c0,.2,0,.3-.2.3-1.7,0-3-.4-3.9-1.3-.9-.9-1.4-2-1.4-3.4,0,0,0-13.2,0-13.2Z"/>
      <path class="st0" d="M136.7,2h3.9c0,.1-8.6,7.3-8.6,7.3l3.9,1.7c3.1,1.4,4.7,3.2,4.7,5.5s-.6,2.8-1.8,3.7c-1.2.9-2.8,1.4-4.8,1.4h-6.9c-.2,0-.2,0-.2-.3v-2.3c0-.2,0-.2.2-.2h7.1c1.1,0,2-.2,2.6-.6.7-.4,1-.9,1-1.5s-.3-1.2-.8-1.6-1.4-1-2.6-1.6l-6-2.7v-1.9l8.1-6.9h0Z"/>
      <path class="st0" d="M144.2,10.7h2.7c.2,1.5.4,3.1.5,4.9v1c0,0,.1.6.1.6,0,.5.3.9.7,1.1.4.2,1,.3,1.8.3s.2,0,.2.2v2.3c0,.2,0,.3-.2.3-1.1,0-1.9-.3-2.4-.9h0c0,0,0,.3,0,.3,0,1.8-.6,3.3-1.7,4.3-1.1,1-2.7,1.5-4.7,1.5v-2.6c1.2,0,2.1-.3,2.8-.9.7-.6,1-1.4,1-2.6,0-2.2-.3-5.6-.9-10.1h0Z"/>
      <path class="st0" d="M152.6,12.4h2.5c0,1.5,0,2.8-.3,4-.1.5-.2,1-.4,1.5.4.2.9.4,1.3.5.6.1,1.1.2,1.6.2,1.1,0,1.8-.4,2.2-1.2.4-.9.6-2.6.6-5.1h2.5c0,1.5,0,2.8-.3,4-.1.6-.2,1.2-.4,1.6.4.2.8.3,1.2.4.6.2,1.1.2,1.8.2,1.7,0,2.6-.7,2.6-2s-.2-3.9-.7-7.1h2.7c.5,3.4.7,5.8.7,7.4s-.5,2.4-1.4,3.3c-1,.9-2.2,1.3-3.6,1.3s-2.8-.5-4.3-1.4c-.9,1-2,1.4-3.6,1.4s-1.2-.1-1.8-.4c-.6-.2-1.3-.6-2.1-1.2-.8,1-2,1.5-3.4,1.5s-.2,0-.2-.3v-2.3c0-.2,0-.2.2-.2,1,0,1.7-.4,2-1.2.4-.9.6-2.6.6-5.1h0ZM157.2,8l2.2-2.2,2,2,2-2,2.2,2.2-2.2,2.2-2-1.9-2,1.9-2.2-2.2ZM159.6,4.8l1.7-1.8,1.8,1.8-1.7,1.7-1.8-1.7Z"/>
      <path class="st0" d="M177.4,20.7v-2.7c1.6.5,3.1.7,4.5.7s1.5,0,2-.1c.3,0,.7-.1,1.1-.2-.2-.5-.4-.9-.5-1.2-.6-1.6-1.2-4.2-1.8-7.7h2.8c.6,3.6,1.1,5.9,1.4,7,.5,1.4,1.4,2.1,2.8,2.1s.2,0,.2.2v2.3c0,.2,0,.3-.2.3-1.4,0-2.6-.4-3.4-1.3-.6.4-1.2.7-1.9.9-.8.2-1.7.4-2.6.4s-1.5,0-2.1-.2-1.4-.3-2.4-.7h0Z"/>
      <path class="st0" d="M189.8,18.7h4.8c.2,0,.2,0,.2.2v2.3c0,.2,0,.3-.2.3h-4.8c-.2,0-.2,0-.2-.3v-2.3c0-.2,0-.2.2-.2Z"/>
      <path class="st0" d="M194.6,18.7h4.8c.2,0,.2,0,.2.2v2.3c0,.2,0,.3-.2.3h-4.8c-.2,0-.2,0-.2-.3v-2.3c0-.2,0-.2.2-.2Z"/>
      <path class="st0" d="M204.1,9.6c.8,0,1.7.2,2.5.6.9.4,1.6.9,2.2,1.4.6.5,1.4,1.1,2.4,1.6.9.6,1.9,1,2.8,1.2l-.7,2.7c-1.1.2-2.1.5-2.9.8-.9.4-1.6.8-2.2,1.1s-1.2.8-2,1.1-1.6.7-2.7.9c-1.1.2-2.4.4-4,.4s-.3,0-.3-.3v-2.3c0-.2,0-.2.3-.2.7,0,1.4,0,2,0,.6,0,1.2-.1,1.8-.3.6-.1,1.1-.2,1.5-.3s.9-.2,1.4-.5c.6-.2.9-.4,1.1-.5.2,0,.6-.3,1.2-.5.6-.3.9-.5,1-.5,0,0,.2,0,.4-.2.2,0,.4-.2.5-.2-.5-.2-1-.5-1.6-.9-.1,0-.3-.2-.6-.5-.3-.2-.5-.4-.6-.4s-.3-.2-.6-.4-.5-.3-.6-.4-.3-.2-.6-.3-.4-.2-.6-.2c-.2,0-.4,0-.6-.1s-.4,0-.7,0c-.9,0-1.9.2-3,.6v-2.6c.9-.5,1.9-.8,3.1-.8h0Z"/>
      <path class="st0" d="M218.2,3.7h2.9l-.5,1.7h-4.1c-.6,0-1.2,0-1.9.3v-1.7c.5-.2.8-.2,1-.3h.7c0,0-.2-.3-.2-.3-.3-.3-.4-.7-.4-1.2,0-.6.2-1.2.7-1.6.5-.4,1-.6,1.7-.6s1.4.2,2.1.5v1.6c-.7-.3-1.2-.4-1.6-.4s-.6,0-.9.3-.4.5-.4.8.1.5.3.6c.2.1.4.2.6.2h0ZM216.6,6.8h2.7v14.8h-2.7V6.8Z"/>
    </g>
    <rect class="st0" x="236.5" y="20.5" width="88.4" height="2"/>
    <rect class="st0" x="1.1" y="20.5" width="88.4" height="2"/>
  </g>
  <g class="st1">
    <rect x="370.9" y="51.6" width=".6" height="55.8"/>
  </g>
</svg>